<svg width="14" height="14" viewBox="0 0 14 14" fill="none" xmlns="http://www.w3.org/2000/svg">
<path d="M13.9518 6.67563C13.9518 2.99783 10.9669 0.0129547 7.28914 0.0129547C3.61134 0.0129547 0.626465 2.99783 0.626465 6.67563C0.626465 10.3534 3.61134 13.3383 7.28914 13.3383C7.31579 13.3383 7.36909 13.3383 7.39574 13.3383V8.14142H5.9566V6.46242H7.39574V5.23649C7.39574 3.824 8.27521 3.05113 9.5278 3.05113C10.1408 3.05113 10.6471 3.10444 10.807 3.10444V4.59687H9.95421C9.26129 4.59687 9.12804 4.91668 9.12804 5.3964V6.46242H10.7804L10.5672 8.14142H9.12804V13.0718C11.8997 12.2723 13.9518 9.71381 13.9518 6.67563Z" fill="white"/>
</svg>
