<?xml version="1.0" standalone="no"?>
<!DOCTYPE svg PUBLIC "-//W3C//DTD SVG 20010904//EN"
 "http://www.w3.org/TR/2001/REC-SVG-20010904/DTD/svg10.dtd">
<svg version="1.0" xmlns="http://www.w3.org/2000/svg"
 width="512.000000pt" height="512.000000pt" viewBox="0 0 512.000000 512.000000"
 preserveAspectRatio="xMidYMid meet">

<g transform="translate(0.000000,512.000000) scale(0.100000,-0.100000)"
fill="#fff" stroke="none">
<path d="M2430 5113 c-335 -33 -633 -148 -875 -338 -548 -431 -751 -1224 -483
-1888 86 -211 196 -375 362 -534 205 -198 433 -320 784 -419 9 -3 12 -68 12
-284 l0 -280 -297 0 c-281 0 -300 -1 -331 -20 -62 -38 -72 -79 -72 -299 0
-226 9 -260 79 -299 37 -21 49 -22 329 -22 l291 0 3 -314 c3 -300 4 -316 24
-342 50 -68 54 -69 292 -72 213 -3 218 -3 251 20 19 13 44 36 55 51 20 27 21
42 24 343 l3 314 292 0 c331 0 342 2 384 76 21 37 23 50 23 244 0 230 -6 254
-70 297 -32 23 -38 23 -332 23 l-298 0 2 281 3 282 75 19 c358 93 690 320 903
618 76 107 184 317 221 431 134 413 100 856 -95 1238 -211 414 -583 712 -1034
830 -153 41 -376 59 -525 44z m227 -664 c502 -56 845 -441 845 -949 1 -231
-76 -436 -229 -612 -118 -137 -303 -253 -478 -300 -120 -32 -356 -32 -474 0
-318 86 -569 323 -670 630 -66 204 -54 454 32 666 140 343 451 552 855 575 12
0 66 -4 119 -10z"/>
</g>
</svg>
