<svg width="76" height="56" viewBox="0 0 76 56" fill="none" xmlns="http://www.w3.org/2000/svg">
<g filter="url(#filter0_d_1059_490)">
<rect x="8" y="6" width="60" height="40" rx="20" fill="#EB5757"/>
</g>
<path d="M48.4355 21.2008C48.0952 20.4128 47.6045 19.6987 46.9908 19.0985C46.3767 18.4965 45.6526 18.0181 44.858 17.6893C44.034 17.347 43.1503 17.1718 42.258 17.1738C41.0063 17.1738 39.785 17.5166 38.7236 18.1641C38.4697 18.319 38.2285 18.4891 38 18.6744C37.7715 18.4891 37.5303 18.319 37.2764 18.1641C36.215 17.5166 34.9937 17.1738 33.742 17.1738C32.8406 17.1738 31.9672 17.3465 31.142 17.6893C30.3447 18.0194 29.6262 18.4942 29.0092 19.0985C28.3947 19.698 27.9039 20.4123 27.5645 21.2008C27.2115 22.0209 27.0312 22.8918 27.0312 23.7881C27.0312 24.6336 27.2039 25.5147 27.5467 26.411C27.8336 27.16 28.2449 27.9369 28.7705 28.7215C29.6033 29.9631 30.7484 31.258 32.1703 32.5707C34.5266 34.7467 36.86 36.2498 36.959 36.3108L37.5607 36.6967C37.8273 36.8668 38.1701 36.8668 38.4367 36.6967L39.0385 36.3108C39.1375 36.2473 41.4684 34.7467 43.8271 32.5707C45.249 31.258 46.3941 29.9631 47.227 28.7215C47.7525 27.9369 48.1664 27.16 48.4508 26.411C48.7936 25.5147 48.9662 24.6336 48.9662 23.7881C48.9688 22.8918 48.7885 22.0209 48.4355 21.2008ZM38 34.6883C38 34.6883 28.9609 28.8967 28.9609 23.7881C28.9609 21.2008 31.1014 19.1035 33.742 19.1035C35.598 19.1035 37.2078 20.1395 38 21.6528C38.7922 20.1395 40.402 19.1035 42.258 19.1035C44.8986 19.1035 47.0391 21.2008 47.0391 23.7881C47.0391 28.8967 38 34.6883 38 34.6883Z" fill="#FAEBD8"/>
<defs>
<filter id="filter0_d_1059_490" x="0" y="0" width="76" height="56" filterUnits="userSpaceOnUse" color-interpolation-filters="sRGB">
<feFlood flood-opacity="0" result="BackgroundImageFix"/>
<feColorMatrix in="SourceAlpha" type="matrix" values="0 0 0 0 0 0 0 0 0 0 0 0 0 0 0 0 0 0 127 0" result="hardAlpha"/>
<feOffset dy="2"/>
<feGaussianBlur stdDeviation="4"/>
<feColorMatrix type="matrix" values="0 0 0 0 0 0 0 0 0 0 0 0 0 0 0 0 0 0 0.25 0"/>
<feBlend mode="normal" in2="BackgroundImageFix" result="effect1_dropShadow_1059_490"/>
<feBlend mode="normal" in="SourceGraphic" in2="effect1_dropShadow_1059_490" result="shape"/>
</filter>
</defs>
</svg>
