<svg width="14" height="29" viewBox="0 0 14 29" fill="none" xmlns="http://www.w3.org/2000/svg">
<path d="M7.52951 7.52009C7.71039 7.52009 7.941 7.6802 8.00403 7.84951L13.6174 22.9182C13.6768 23.0777 13.6038 23.3241 13.4669 23.4253L7.32598 27.9733L6.26056 7.74156C6.25744 7.68152 6.27746 7.62557 6.31653 7.5844C6.35575 7.54306 6.41058 7.52025 6.47066 7.52025L7.52951 7.52009ZM7.52951 7.15835H6.47082C6.13909 7.15835 5.88189 7.4292 5.89945 7.76026L6.96849 28.0626C6.98014 28.2819 7.08584 28.404 7.23357 28.404C7.30874 28.404 7.39475 28.3723 7.4847 28.3055L13.6824 23.7155C13.949 23.518 14.0722 23.1024 13.9565 22.7917L8.34298 7.72286C8.22726 7.41263 7.86123 7.15835 7.52951 7.15835Z" fill="#FAEBD8"/>
<path d="M7.52951 7.52009C7.58958 7.52009 7.6444 7.54289 7.68347 7.58423C7.7227 7.62557 7.74256 7.68135 7.73944 7.7414L6.67402 27.9732L0.533115 23.4251C0.396388 23.3239 0.323348 23.0775 0.382601 22.9181L5.99629 7.84934C6.05932 7.68004 6.28994 7.51993 6.47082 7.51993L7.52951 7.52009ZM7.52951 7.15835H6.47082C6.13909 7.15835 5.7729 7.41247 5.65702 7.72319L0.0434902 22.7921C-0.0722273 23.1028 0.0510428 23.5183 0.317603 23.7158L6.5153 28.3059C6.60541 28.3725 6.69142 28.4043 6.76659 28.4043C6.91432 28.4043 7.02019 28.2822 7.03184 28.0629L8.10104 7.76059C8.11844 7.4292 7.86123 7.15835 7.52951 7.15835Z" fill="#FAEBD8"/>
<path d="M7.52968 7.15835C7.8614 7.15835 8.18738 7.42412 8.25418 7.74878L11.4084 23.0877C11.4752 23.4123 11.3569 23.8871 11.1451 24.1425L7.38458 28.6827C7.173 28.9381 6.82683 28.9381 6.61526 28.6827L2.85469 24.1425C2.64312 23.8871 2.52477 23.4125 2.59141 23.0877L5.74598 7.74878C5.81279 7.42412 6.13877 7.15835 6.47049 7.15835H7.52968Z" fill="#FAEBD8"/>
<path d="M8.78763 4.71939C8.78763 4.40654 8.53141 4.15045 8.2184 4.15045H5.81278C5.49977 4.15045 5.24355 4.40654 5.24355 4.71939V5.82674C5.24355 6.13959 5.49977 6.39567 5.81278 6.39567H8.2184C8.53141 6.39567 8.78763 6.13959 8.78763 5.82674V4.71939Z" fill="#FAEBD8"/>
<path d="M5.72661 3.72457C5.72431 3.72457 5.72234 3.72457 5.72005 3.72457C5.6145 3.72096 5.53195 3.6327 5.53523 3.52754C5.53753 3.45208 5.5651 1.67638 3.53487 1.43358C3.42999 1.42111 3.35515 1.32596 3.36762 1.22113C3.38042 1.11646 3.4771 1.04199 3.58034 1.05413C5.48779 1.28232 5.94328 2.77996 5.91734 3.53985C5.91423 3.6432 5.8292 3.72457 5.72661 3.72457Z" fill="#FAEBD8"/>
<path d="M8.23678 3.82858C8.22332 3.82858 8.21002 3.82727 8.1964 3.82431C8.09332 3.80217 8.0275 3.70078 8.0495 3.59759C8.05508 3.57217 8.61676 1.06348 10.7988 0.87498C10.9045 0.865957 10.9968 0.943718 11.0058 1.04904C11.0148 1.1542 10.937 1.24689 10.8316 1.25591C8.93355 1.41996 8.42833 3.65518 8.4234 3.67782C8.4042 3.76722 8.32492 3.82858 8.23678 3.82858Z" fill="#FAEBD8"/>
</svg>
