<svg width="50" height="105" viewBox="0 0 50 105" fill="none" xmlns="http://www.w3.org/2000/svg">
<path d="M26.8911 27.8608C27.5371 27.8608 28.3607 28.4327 28.5858 29.0373L48.6336 82.8541C48.8458 83.4236 48.5849 84.3037 48.096 84.6652L26.1642 100.908L22.3591 28.6518C22.348 28.4373 22.4195 28.2375 22.559 28.0905C22.6991 27.9428 22.8949 27.8614 23.1095 27.8614L26.8911 27.8608ZM26.8911 26.5689H23.1101C21.9253 26.5689 21.0067 27.5362 21.0695 28.7186L24.8874 101.227C24.9291 102.01 25.3066 102.446 25.8342 102.446C26.1027 102.446 26.4098 102.333 26.7311 102.095L48.8657 85.7016C49.8177 84.9962 50.258 83.5121 49.8447 82.4024L29.7964 28.585C29.3831 27.477 28.0758 26.5689 26.8911 26.5689Z" fill="#EC513F"/>
<path d="M26.8911 27.8608C27.1057 27.8608 27.3014 27.9423 27.441 28.0899C27.5811 28.2375 27.652 28.4368 27.6409 28.6512L23.8358 100.908L1.90398 84.6646C1.41567 84.3031 1.15481 83.4231 1.36643 82.8536L21.4153 29.0367C21.6404 28.4321 22.4641 27.8602 23.1101 27.8602L26.8911 27.8608ZM26.8911 26.5689H23.1101C21.9253 26.5689 20.6175 27.4765 20.2036 28.5862L0.155322 82.4036C-0.257955 83.5133 0.182296 84.9974 1.1343 85.7028L23.2689 102.096C23.5907 102.334 23.8979 102.447 24.1664 102.447C24.694 102.447 25.0721 102.011 25.1137 101.228L28.9323 28.7197C28.9944 27.5362 28.0758 26.5689 26.8911 26.5689Z" fill="#EC513F"/>
<path d="M26.8911 26.5689C28.0758 26.5689 29.2406 27.5181 29.4792 28.6776L40.7444 83.4594C40.983 84.6189 40.5603 86.3145 39.8041 87.2267L26.3735 103.442C25.6179 104.354 24.3815 104.354 23.6259 103.442L10.1953 87.2267C9.4397 86.3145 9.01704 84.6195 9.25504 83.4594L20.5214 28.6776C20.76 27.5181 21.9242 26.5689 23.1089 26.5689H26.8911Z" fill="#EC513F"/>
<path d="M31.3844 17.8583C31.3844 16.741 30.4693 15.8264 29.3514 15.8264H20.7599C19.642 15.8264 18.727 16.741 18.727 17.8583V21.8131C18.727 22.9304 19.642 23.845 20.7599 23.845H29.3514C30.4693 23.845 31.3844 22.9304 31.3844 21.8131V17.8583Z" fill="#EC513F"/>
<path d="M20.4522 14.3054C20.444 14.3054 20.4369 14.3054 20.4287 14.3054C20.0518 14.2925 19.757 13.9773 19.7687 13.6017C19.7769 13.3322 19.8754 6.99041 12.6246 6.12327C12.25 6.07874 11.9827 5.73892 12.0272 5.36453C12.0729 4.99072 12.4182 4.72472 12.7869 4.76808C19.5993 5.58307 21.226 10.9318 21.1334 13.6457C21.1222 14.0148 20.8186 14.3054 20.4522 14.3054Z" fill="#EC513F"/>
<path d="M29.4171 14.6769C29.369 14.6769 29.3215 14.6722 29.2729 14.6616C28.9047 14.5825 28.6697 14.2204 28.7482 13.8519C28.7681 13.7611 30.7741 4.80148 38.5672 4.12828C38.9447 4.09605 39.2741 4.37377 39.3064 4.74992C39.3386 5.12548 39.0608 5.45651 38.6844 5.48874C31.9055 6.07464 30.1012 14.0576 30.0836 14.1384C30.015 14.4577 29.7319 14.6769 29.4171 14.6769Z" fill="#EC513F"/>
</svg>
