<svg width="23" height="47" viewBox="0 0 23 47" fill="none" xmlns="http://www.w3.org/2000/svg">
<path d="M12.3699 11.7924C12.6671 11.7924 13.0459 12.0554 13.1495 12.3336L22.3714 37.0893C22.4691 37.3513 22.3491 37.7561 22.1242 37.9224L12.0355 45.3942L10.2852 12.1562C10.2801 12.0576 10.313 11.9657 10.3771 11.8981C10.4416 11.8301 10.5317 11.7927 10.6304 11.7927L12.3699 11.7924ZM12.3699 11.1981H10.6306C10.0857 11.1981 9.66311 11.6431 9.69196 12.187L11.4482 45.5408C11.4674 45.9011 11.641 46.1016 11.8837 46.1016C12.0072 46.1016 12.1485 46.0496 12.2963 45.9399L22.4782 38.3992C22.9161 38.0747 23.1187 37.392 22.9286 36.8815L13.7063 12.1255C13.5162 11.6159 12.9149 11.1981 12.3699 11.1981Z" fill="#6BAED6"/>
<path d="M12.3699 11.7924C12.4686 11.7924 12.5587 11.8299 12.6228 11.8978C12.6873 11.9657 12.7199 12.0573 12.7148 12.156L10.9645 45.3939L0.875832 37.9221C0.651208 37.7558 0.531214 37.351 0.62856 37.0891L9.85105 12.3333C9.9546 12.0552 10.3335 11.7921 10.6306 11.7921L12.3699 11.7924ZM12.3699 11.1981H10.6306C10.0857 11.1981 9.48406 11.6156 9.29368 12.1261L0.0714482 36.8821C-0.118659 37.3925 0.083856 38.0752 0.521777 38.3997L10.7037 45.9405C10.8517 46.0499 10.993 46.1022 11.1165 46.1022C11.3592 46.1022 11.5332 45.9017 11.5523 45.5413L13.3088 12.1875C13.3374 11.6431 12.9149 11.1981 12.3699 11.1981Z" fill="#6BAED6"/>
<path d="M12.3702 11.1981C12.9152 11.1981 13.4507 11.6347 13.5604 12.1681L18.7424 37.3677C18.8522 37.9011 18.6577 38.6811 18.3099 39.1007L12.1318 46.5595C11.7842 46.9792 11.2155 46.9792 10.8679 46.5595L4.68985 39.1007C4.34226 38.6811 4.14784 37.9014 4.25732 37.3677L9.43983 12.1681C9.54958 11.6347 10.0851 11.1981 10.6301 11.1981H12.3702Z" fill="#6BAED6"/>
<path d="M14.4368 7.19125C14.4368 6.67728 14.0159 6.25657 13.5016 6.25657H9.54957C9.03534 6.25657 8.61441 6.67728 8.61441 7.19125V9.01047C8.61441 9.52444 9.03534 9.94515 9.54957 9.94515H13.5016C14.0159 9.94515 14.4368 9.52444 14.4368 9.01047V7.19125Z" fill="#6BAED6"/>
<path d="M9.40801 5.55691C9.40423 5.55691 9.40099 5.55691 9.39722 5.55691C9.22383 5.55098 9.0882 5.40598 9.09359 5.23322C9.09737 5.10924 9.14267 2.19202 5.80729 1.79314C5.63498 1.77265 5.51203 1.61633 5.53252 1.44411C5.55355 1.27216 5.71238 1.1498 5.88199 1.16975C9.01566 1.54464 9.76396 4.00504 9.72135 5.25344C9.71623 5.42323 9.57654 5.55691 9.40801 5.55691Z" fill="#6BAED6"/>
<path d="M13.5318 5.72778C13.5097 5.72778 13.4879 5.72563 13.4655 5.72077C13.2962 5.68439 13.188 5.51783 13.2242 5.3483C13.2333 5.30653 14.1561 1.18511 17.7409 0.875438C17.9146 0.860614 18.0661 0.988364 18.0809 1.16139C18.0958 1.33415 17.968 1.48643 17.7948 1.50125C14.6765 1.77077 13.8465 5.4429 13.8384 5.4801C13.8069 5.62698 13.6767 5.72778 13.5318 5.72778Z" fill="#6BAED6"/>
</svg>
