<?xml version="1.0" standalone="no"?>
<!DOCTYPE svg PUBLIC "-//W3C//DTD SVG 20010904//EN"
 "http://www.w3.org/TR/2001/REC-SVG-20010904/DTD/svg10.dtd">
<svg version="1.0" xmlns="http://www.w3.org/2000/svg"
 width="128.000000pt" height="128.000000pt" viewBox="0 0 128.000000 128.000000"
 preserveAspectRatio="xMidYMid meet">

<g transform="translate(0.000000,128.000000) scale(0.100000,-0.100000)"
fill="#fff" stroke="none">
<path d="M1025 1249 c-33 -17 -98 -51 -145 -76 -242 -128 -792 -450 -807 -472
-20 -31 -20 -91 0 -122 10 -15 161 -107 379 -231 535 -306 604 -341 660 -342
55 -1 92 27 108 83 13 48 13 1054 0 1102 -13 47 -50 80 -97 85 -29 4 -51 -2
-98 -27z"/>
</g>
</svg>
