<?xml version="1.0" standalone="no"?>
<!DOCTYPE svg PUBLIC "-//W3C//DTD SVG 20010904//EN"
 "http://www.w3.org/TR/2001/REC-SVG-20010904/DTD/svg10.dtd">
<svg version="1.0" xmlns="http://www.w3.org/2000/svg"
 width="512.000000pt" height="512.000000pt" viewBox="0 0 512.000000 512.000000"
 preserveAspectRatio="xMidYMid meet">

<g transform="translate(0.000000,512.000000) scale(0.100000,-0.100000)"
fill="#fff" stroke="none">
<path d="M2770 4830 l0 -290 682 0 683 0 -505 -505 -505 -505 -100 65 c-217
143 -460 239 -740 292 -125 23 -436 28 -582 9 -1061 -140 -1813 -1104 -1688
-2167 76 -652 474 -1221 1061 -1518 182 -92 363 -150 579 -188 149 -26 480
-23 635 5 850 154 1494 826 1606 1675 24 181 15 468 -21 637 -52 250 -149 486
-280 685 l-65 100 505 505 505 505 0 -683 0 -682 290 0 290 0 0 1175 0 1175
-1175 0 -1175 0 0 -290z m-565 -1585 c276 -58 477 -166 675 -365 160 -160 253
-306 319 -506 52 -156 66 -243 65 -419 0 -174 -20 -296 -71 -439 -137 -381
-457 -688 -842 -810 -192 -61 -442 -75 -636 -38 -589 116 -1016 592 -1064
1187 -57 698 449 1315 1149 1405 94 13 312 4 405 -15z"/>
</g>
</svg>
