<svg width="23" height="23" viewBox="0 0 23 23" fill="none" xmlns="http://www.w3.org/2000/svg">
<path d="M22.8778 11.0277L21.7383 9.09963L21.9574 6.85764C22.0013 6.49892 21.826 6.18504 21.563 6.00568L19.6784 4.795L18.9334 2.68753C18.8019 2.37365 18.5389 2.14945 18.2321 2.10461L16.0408 1.83557L14.463 0.266173C14.2439 0.0419739 13.8932 -0.0477059 13.5864 0.0419739L11.4827 0.759412L9.37903 0.0419739C9.07224 -0.0477059 8.72162 -0.00286601 8.50248 0.266173L6.9247 1.83557L4.73334 2.10461C4.42655 2.14945 4.11976 2.37365 4.03211 2.68753L3.28704 4.795L1.4463 6.00568C1.18334 6.18504 1.00803 6.49892 1.05185 6.85764L1.27099 9.09963L0.131482 11.0277C-0.0438272 11.2968 -0.0438272 11.7003 0.131482 11.9694L1.22716 13.8975L1.00803 16.1395C0.964199 16.4982 1.13951 16.8121 1.40247 16.9915L3.24322 18.2021L3.98828 20.3096C4.11976 20.6235 4.38272 20.8477 4.68951 20.8925L6.88088 21.1616L8.45866 22.731C8.67779 22.9552 9.02841 23.0448 9.3352 22.9552L11.4389 22.2377L13.5426 22.9552C13.6303 23 13.7179 23 13.8056 23C14.0247 23 14.2439 22.9103 14.4192 22.731L15.9969 21.1616L18.1883 20.8925C18.5389 20.8477 18.8019 20.6235 18.8895 20.3096L19.6346 18.2021L21.4753 16.9915C21.7383 16.8121 21.9136 16.4982 21.8698 16.1395L21.6507 13.8975L22.7902 11.9694C23.0531 11.7003 23.0531 11.3416 22.8778 11.0277ZM20.1167 15.7808L18.4513 16.8569C18.276 16.9466 18.1445 17.126 18.1007 17.3053L17.4432 19.1886L15.5148 19.4576C15.3395 19.5025 15.1642 19.5922 14.9889 19.7267L13.6303 21.0719L11.7895 20.4441C11.7019 20.3993 11.6142 20.3993 11.5266 20.3993C11.4389 20.3993 11.3513 20.3993 11.2636 20.4441L9.3352 21.0719L7.93273 19.6818C7.80125 19.5473 7.62594 19.4576 7.4068 19.4128L5.4784 19.1438L4.821 17.2605C4.73334 17.0811 4.64569 16.9018 4.47038 16.8121L2.80494 15.7359L3.02408 13.763C3.02408 13.5836 2.98025 13.3594 2.8926 13.1801L1.88457 11.4761L2.8926 9.77223C2.98025 9.63771 3.02408 9.45835 3.02408 9.23415L2.84877 7.2612L4.51421 6.18504C4.68951 6.09536 4.821 5.916 4.86482 5.73664L5.52223 3.85337L7.45063 3.58433C7.62594 3.53949 7.80125 3.44981 7.97656 3.31529L9.37903 1.92525L11.2198 2.55301C11.3951 2.59785 11.6142 2.59785 11.7895 2.55301L13.6303 1.92525L15.0327 3.31529C15.1642 3.44981 15.3395 3.53949 15.5587 3.58433L17.4871 3.85337L18.1445 5.73664C18.2321 5.916 18.3198 6.09536 18.4951 6.18504L20.1605 7.2612L19.9852 9.23415C19.9852 9.41351 20.0291 9.63771 20.1167 9.81707L21.1247 11.521L20.1167 13.2249C20.0291 13.4043 19.9852 13.5836 19.9852 13.8078L20.1167 15.7808ZM16.0846 9.27899L13.6741 8.92027C13.4111 8.87543 13.192 8.74091 13.1043 8.47187L12.0087 6.22988C11.7457 5.64696 10.913 5.64696 10.65 6.22988L9.55434 8.47187C9.42286 8.69607 9.24755 8.87543 8.98458 8.92027L6.57409 9.27899C5.96051 9.36867 5.69754 10.1758 6.13581 10.6242L7.8889 12.3729C8.06421 12.5523 8.15187 12.8213 8.10804 13.0904L7.71359 15.5566C7.62594 16.1843 8.28335 16.6776 8.80928 16.3637L11.0006 15.1979C11.2198 15.0633 11.4827 15.0633 11.7019 15.1979L13.8932 16.3637C14.463 16.6776 15.1204 16.1843 14.9889 15.5566L14.5945 13.0904C14.5506 12.8213 14.6383 12.5971 14.8136 12.3729L16.5667 10.6242C16.9611 10.131 16.6982 9.36867 16.0846 9.27899Z" fill="#EC513F"/>
</svg>
