<svg width="19" height="23" viewBox="0 0 19 23" fill="none" xmlns="http://www.w3.org/2000/svg">
<path d="M9.31454 10.9401H9.10846C6.22343 10.9401 3.87418 8.48502 3.87418 5.47004C3.87418 2.45506 6.22343 0 9.10846 0H9.31454C12.1996 0 14.5488 2.45506 14.5488 5.47004C14.5488 8.48502 12.1996 10.9401 9.31454 10.9401ZM9.10846 1.72285C7.13015 1.72285 5.52277 3.40262 5.52277 5.47004C5.52277 7.53745 7.13015 9.21723 9.10846 9.21723H9.31454C11.2928 9.21723 12.9002 7.53745 12.9002 5.47004C12.9002 3.40262 11.2928 1.72285 9.31454 1.72285H9.10846Z" fill="#214762"/>
<path d="M18.1757 23C17.7223 23 17.3514 22.6124 17.3514 22.1386V17.4869C17.3514 15.721 15.9501 14.2566 14.2603 14.2566H4.7397C3.04989 14.2566 1.64859 15.721 1.64859 17.4869V22.1386C1.64859 22.6124 1.27766 23 0.824295 23C0.370933 23 0 22.6124 0 22.1386V17.4869C0 14.7734 2.14317 12.5337 4.7397 12.5337H14.2603C16.8568 12.5337 19 14.7734 19 17.4869V22.1386C19 22.6554 18.6291 23 18.1757 23Z" fill="#214762"/>
</svg>
