<svg width="23" height="22" viewBox="0 0 23 22" fill="none" xmlns="http://www.w3.org/2000/svg">
<path d="M9.34129 18.7597C4.20358 18.7597 0 14.5388 0 9.37985C0 4.22093 4.20358 0 9.34129 0C14.479 0 18.6826 4.22093 18.6826 9.37985C18.6826 14.5388 14.479 18.7597 9.34129 18.7597ZM9.34129 1.70543C5.13771 1.70543 1.69842 5.15892 1.69842 9.37985C1.69842 13.6008 5.13771 17.0543 9.34129 17.0543C13.5449 17.0543 16.9842 13.6008 16.9842 9.37985C16.9842 5.15892 13.5449 1.70543 9.34129 1.70543Z" fill="#214762"/>
<path d="M22.1643 22C21.952 22 21.7397 21.9147 21.6123 21.7868L15.1584 15.9884C14.8187 15.6899 14.7762 15.1357 15.0734 14.7946C15.3707 14.4535 15.9227 14.4109 16.2623 14.7093L22.7163 20.5078C23.056 20.8062 23.0985 21.3605 22.8012 21.7016C22.6314 21.9147 22.3766 22 22.1643 22Z" fill="#214762"/>
</svg>
