<?xml version="1.0" standalone="no"?>
<!DOCTYPE svg PUBLIC "-//W3C//DTD SVG 20010904//EN"
 "http://www.w3.org/TR/2001/REC-SVG-20010904/DTD/svg10.dtd">
<svg version="1.0" xmlns="http://www.w3.org/2000/svg"
 width="512.000000pt" height="512.000000pt" viewBox="0 0 512.000000 512.000000"
 preserveAspectRatio="xMidYMid meet">

<g transform="translate(0.000000,512.000000) scale(0.100000,-0.100000)"
fill="#fff" stroke="none">
<path d="M4275 5104 c-40 -7 -111 -34 -165 -60 -79 -39 -110 -62 -181 -133
-71 -71 -94 -102 -133 -181 -93 -189 -100 -401 -19 -583 l26 -59 -525 -525
-525 -525 -97 67 c-189 128 -411 220 -646 266 -152 31 -441 33 -595 5 -357
-65 -662 -224 -915 -476 -252 -253 -411 -558 -476 -915 -25 -139 -25 -431 0
-570 89 -493 370 -904 796 -1168 307 -190 694 -276 1058 -236 759 82 1360 646
1498 1404 28 153 26 443 -4 593 -52 257 -160 507 -304 700 l-32 43 526 526
526 526 59 -26 c32 -14 93 -33 135 -41 310 -64 623 91 762 376 101 206 101
410 0 616 -140 287 -451 439 -769 376z m279 -418 c105 -51 161 -144 161 -266
0 -85 -21 -142 -74 -203 -82 -92 -237 -121 -353 -64 -160 79 -215 278 -118
430 80 126 246 170 384 103z m-2584 -1715 c257 -58 462 -171 646 -355 187
-186 303 -402 360 -668 25 -116 25 -380 0 -496 -57 -266 -173 -482 -360 -668
-186 -187 -402 -303 -668 -360 -116 -25 -380 -25 -496 0 -265 57 -476 171
-668 361 -187 184 -302 398 -360 665 -26 119 -26 381 0 500 58 270 168 473
361 665 114 115 202 180 333 246 93 47 261 103 357 118 39 6 81 13 95 15 60
11 319 -4 400 -23z"/>
</g>
</svg>
