<svg width="38" height="32" viewBox="0 0 38 32" fill="none" xmlns="http://www.w3.org/2000/svg">
<path d="M20.2105 16.4211H24.8421C25.5579 16.4211 26.1053 16.9684 26.1053 17.6842C26.1053 18.4 25.5579 18.9474 24.8421 18.9474H20.2105V23.5789C20.2105 24.2947 19.6632 24.8421 18.9474 24.8421C18.2316 24.8421 17.6842 24.2947 17.6842 23.5789V18.9474H13.0526C12.3368 18.9474 11.7895 18.4 11.7895 17.6842C11.7895 16.9684 12.3368 16.4211 13.0526 16.4211H17.6842V11.7895C17.6842 11.0737 18.2316 10.5263 18.9474 10.5263C19.6632 10.5263 20.2105 11.0737 20.2105 11.7895V16.4211ZM36.4211 6.35789C37.3895 7.32632 37.8947 8.46316 37.8947 9.85263V27.0737C37.8947 28.4211 37.3895 29.6 36.4211 30.5684C35.4105 31.5368 34.2316 32 32.8421 32H5.05263C3.66316 32 2.48421 31.5368 1.47368 30.5684C0.505263 29.6 0 28.4632 0 27.0737V9.85263C0 8.50526 0.505263 7.32632 1.47368 6.35789C2.44211 5.38947 3.66316 4.92632 5.05263 4.92632H9.47368L10.4842 2.31579C10.7368 1.68421 11.2 1.13684 11.8737 0.673684C12.5053 0.210526 13.1789 0 13.8947 0H24C24.7158 0 25.3895 0.210526 26.0632 0.673684C26.7368 1.13684 27.2 1.68421 27.4526 2.31579L28.4632 4.92632H32.8421C34.2316 4.92632 35.4105 5.38947 36.4211 6.35789ZM18.9474 28.2105C24.7579 28.2105 29.4737 23.4947 29.4737 17.6842C29.4737 11.8737 24.7579 7.15789 18.9474 7.15789C13.1368 7.15789 8.42105 11.8737 8.42105 17.6842C8.42105 23.4947 13.1368 28.2105 18.9474 28.2105Z" fill="#214762"/>
</svg>
