<?xml version="1.0" standalone="no"?>
<!DOCTYPE svg PUBLIC "-//W3C//DTD SVG 20010904//EN"
 "http://www.w3.org/TR/2001/REC-SVG-20010904/DTD/svg10.dtd">
<svg version="1.0" xmlns="http://www.w3.org/2000/svg"
 width="128.000000pt" height="128.000000pt" viewBox="0 0 128.000000 128.000000"
 preserveAspectRatio="xMidYMid meet">

<g transform="translate(0.000000,128.000000) scale(0.100000,-0.100000)"
fill="#000000" stroke="none">
<path d="M525 1265 c-339 -61 -571 -392 -512 -728 10 -55 29 -118 51 -164 36
-76 126 -197 153 -207 23 -9 253 122 264 151 18 49 10 98 -25 158 -19 31 -38
70 -41 85 -3 16 -13 34 -21 41 -16 13 -20 144 -4 154 6 3 10 46 10 95 0 127
20 168 105 213 33 18 57 21 135 21 78 0 102 -3 135 -21 84 -44 105 -88 105
-220 0 -45 5 -85 10 -88 6 -3 10 -37 10 -74 0 -56 -4 -71 -21 -87 -12 -10 -36
-49 -55 -86 -18 -36 -38 -69 -44 -73 -16 -10 -12 -108 6 -133 21 -31 250 -145
274 -137 30 10 116 125 156 209 24 51 41 107 52 171 14 86 14 104 0 189 -45
272 -250 484 -514 531 -95 17 -137 17 -229 0z"/>
</g>
</svg>
