<svg width="36" height="36" viewBox="0 0 36 36" fill="none" xmlns="http://www.w3.org/2000/svg">
<path d="M24.1 15H20.4V11.3C20.4 9.9 19.3 8.8 17.9 8.8C16.5 8.8 15.4 9.9 15.4 11.3V15H11.7C10.3 15 9.2 16.1 9.2 17.5C9.2 18.9 10.3 20 11.7 20H15.4V23.7C15.4 25.1 16.5 26.2 17.9 26.2C19.3 26.2 20.4 25.1 20.4 23.7V20H24.1C25.5 20 26.6 18.9 26.6 17.5C26.6 16.1 25.5 15 24.1 15ZM17.7 0C7.9 0 0 7.9 0 17.7C0 27.4 7.9 35.4 17.7 35.4C27.4 35.4 35.4 27.5 35.4 17.7C35.3 7.9 27.4 0 17.7 0ZM17.7 30.3C10.7 30.3 5 24.6 5 17.6C5 10.7 10.7 5 17.7 5C24.7 5 30.4 10.7 30.4 17.7C30.3 24.6 24.6 30.3 17.7 30.3Z" fill="#214762"/>
</svg>
