<svg width="30" height="23" viewBox="0 0 30 23" fill="none" xmlns="http://www.w3.org/2000/svg">
<path d="M29 16.874H14.8989C14.3464 14.1685 11.7052 12.4232 8.99963 12.9757C7.03633 13.3766 5.50204 14.9108 5.10111 16.874H1C0.447704 16.874 0 17.3217 0 17.8739C0 18.4262 0.447704 18.8739 1 18.8739H5.10107C5.65359 21.5793 8.29478 23.3247 11.0004 22.7722C12.9637 22.3713 14.498 20.8371 14.8989 18.8739H29C29.5523 18.8739 30 18.4262 30 17.8739C30 17.3217 29.5523 16.874 29 16.874ZM10 20.8738C8.34315 20.8738 7 19.5307 7 17.8739C7 16.2172 8.34315 14.8741 10 14.8741C11.6569 14.8741 13 16.2172 13 17.8739C12.9982 19.53 11.6561 20.872 10 20.8738ZM1 6.87454H15.1011C15.6536 9.57998 18.2948 11.3253 21.0004 10.7728C22.9637 10.3719 24.498 8.83773 24.8989 6.87454H29C29.5523 6.87454 30 6.42686 30 5.87459C30 5.32233 29.5523 4.87465 29 4.87465H24.8989C24.3464 2.1692 21.7052 0.423891 18.9996 0.976342C17.0363 1.37725 15.502 2.91146 15.1011 4.87465H1C0.447704 4.87465 0 5.32233 0 5.87459C0 6.42686 0.447704 6.87454 1 6.87454ZM20 2.87476C21.6569 2.87476 23 4.21783 23 5.87459C23 7.53135 21.6569 8.87443 20 8.87443C18.3431 8.87443 17 7.53135 17 5.87459C17.0018 4.21857 18.3439 2.87657 20 2.87476Z" fill="#214762"/>
</svg>
