<svg width="24" height="19" viewBox="0 0 24 19" fill="none" xmlns="http://www.w3.org/2000/svg">
<path d="M23.2 13.9649H11.9191C11.4771 11.7514 9.36418 10.3234 7.1997 10.7754C5.62907 11.1034 4.40163 12.3587 4.08089 13.9649H0.8C0.358163 13.9649 0 14.3312 0 14.7831C0 15.2349 0.358163 15.6012 0.8 15.6012H4.08086C4.52287 17.8148 6.63582 19.2428 8.8003 18.7907C10.3709 18.4627 11.5984 17.2075 11.9191 15.6012H23.2C23.6418 15.6012 24 15.2349 24 14.7831C24 14.3312 23.6418 13.9649 23.2 13.9649ZM8 17.2375C6.67452 17.2375 5.6 16.1386 5.6 14.7831C5.6 13.4276 6.67452 12.3287 8 12.3287C9.32548 12.3287 10.4 13.4276 10.4 14.7831C10.3985 16.138 9.32489 17.236 8 17.2375ZM0.8 5.78358H12.0809C12.5229 7.99712 14.6358 9.42514 16.8003 8.9731C18.3709 8.64509 19.5984 7.38982 19.9191 5.78358H23.2C23.6418 5.78358 24 5.4173 24 4.96544C24 4.51359 23.6418 4.14731 23.2 4.14731H19.9191C19.4771 1.93376 17.3642 0.505778 15.1997 0.957783C13.6291 1.2858 12.4016 2.54106 12.0809 4.14731H0.8C0.358163 4.14731 0 4.51359 0 4.96544C0 5.4173 0.358163 5.78358 0.8 5.78358ZM16 2.51103C17.3255 2.51103 18.4 3.60991 18.4 4.96544C18.4 6.32097 17.3255 7.41985 16 7.41985C14.6745 7.41985 13.6 6.32097 13.6 4.96544C13.6015 3.61052 14.6751 2.51252 16 2.51103Z" fill="#214762"/>
</svg>
