<?xml version="1.0" standalone="no"?>
<!DOCTYPE svg PUBLIC "-//W3C//DTD SVG 20010904//EN"
 "http://www.w3.org/TR/2001/REC-SVG-20010904/DTD/svg10.dtd">
<svg version="1.0" xmlns="http://www.w3.org/2000/svg"
 width="128.000000pt" height="128.000000pt" viewBox="0 0 128.000000 128.000000"
 preserveAspectRatio="xMidYMid meet">

<g transform="translate(0.000000,128.000000) scale(0.100000,-0.100000)"
fill="#fff" stroke="none">
<path d="M70 1050 c-16 -16 -19 -29 -15 -53 20 -117 45 -316 45 -360 0 -29
-11 -126 -25 -216 -13 -90 -21 -170 -18 -178 9 -23 51 -35 75 -22 12 6 119 74
240 151 120 76 225 141 233 144 18 7 18 3 0 -116 -21 -135 -20 -156 9 -175 20
-14 29 -14 48 -4 59 31 542 376 555 396 14 20 14 26 0 46 -13 20 -496 365
-555 396 -19 10 -28 10 -48 -4 -29 -19 -30 -40 -9 -175 18 -118 18 -123 1
-117 -8 3 -121 74 -252 156 -130 83 -243 151 -250 151 -8 0 -23 -9 -34 -20z"/>
</g>
</svg>
