<svg width="16" height="16" viewBox="0 0 16 16" fill="none" xmlns="http://www.w3.org/2000/svg">
<g clip-path="url(#clip0_1048_605)">
<path fill-rule="evenodd" clip-rule="evenodd" d="M15.2993 8.3498C15.2993 7.82405 15.2521 7.31852 15.1645 6.83321H8.1814V9.70126H12.1717C11.9999 10.6281 11.4775 11.4133 10.6922 11.9391V13.7994H13.0884C14.4904 12.5086 15.2993 10.6078 15.2993 8.3498Z" fill="#4285F4"/>
<path fill-rule="evenodd" clip-rule="evenodd" d="M8.18126 15.5958C10.1832 15.5958 11.8615 14.9318 13.0883 13.7994L10.6921 11.9391C10.0281 12.384 9.17885 12.6468 8.18126 12.6468C6.25013 12.6468 4.61558 11.3426 4.03253 9.59004H1.55542V11.5111C2.77544 13.9343 5.28288 15.5958 8.18126 15.5958Z" fill="#34A853"/>
<path fill-rule="evenodd" clip-rule="evenodd" d="M4.03258 9.59004C3.8843 9.14517 3.80004 8.66997 3.80004 8.18129C3.80004 7.69261 3.8843 7.21741 4.03258 6.77254V4.85152H1.55548C1.05331 5.85247 0.766846 6.98486 0.766846 8.18129C0.766846 9.37772 1.05331 10.5101 1.55548 11.5111L4.03258 9.59004Z" fill="#FBBC05"/>
<path fill-rule="evenodd" clip-rule="evenodd" d="M8.18126 3.71575C9.26984 3.71575 10.2472 4.08985 11.0156 4.82456L13.1422 2.69795C11.8582 1.50152 10.1798 0.766815 8.18126 0.766815C5.28288 0.766815 2.77544 2.42833 1.55542 4.85152L4.03253 6.77254C4.61558 5.02003 6.25013 3.71575 8.18126 3.71575Z" fill="#EA4335"/>
</g>
<defs>
<clipPath id="clip0_1048_605">
<rect width="14.8289" height="14.8289" fill="white" transform="translate(0.766846 0.766815)"/>
</clipPath>
</defs>
</svg>
