<svg width="22" height="22" viewBox="0 0 22 22" fill="none" xmlns="http://www.w3.org/2000/svg">
<path d="M8.76889 22H5.18162C3.95669 22 2.90676 21.0136 2.90676 19.77V13.037H2.42554C1.41935 13.037 0.54441 12.4795 0.194432 11.5789C-0.199293 10.6784 0.0194432 9.69201 0.719399 9.00585L9.33761 0.68616C9.77508 0.25731 10.3875 0 11.0437 0C11.7 0 12.2687 0.25731 12.7061 0.68616L21.2806 8.96296C21.9806 9.64912 22.1993 10.6355 21.8056 11.5361C21.4118 12.4366 20.5369 12.9942 19.5745 12.9942H18.962V19.7271C18.962 20.9279 17.9558 21.9571 16.6871 21.9571H13.2311C12.3999 21.9571 11.7 21.271 11.7 20.4561V15.5244H10.3V20.499C10.3 21.3138 9.64384 22 8.76889 22ZM11.0437 1.75828C10.8688 1.75828 10.6938 1.84405 10.5625 1.92982L1.98807 10.2066C1.76933 10.4211 1.72559 10.6784 1.81308 10.9357C1.90057 11.193 2.16306 11.3216 2.42554 11.3216H4.65665V19.77C4.65665 20.0273 4.87539 20.2846 5.18162 20.2846H8.55016V13.809H13.4498V20.2846H16.6871C16.9496 20.2846 17.2121 20.0702 17.2121 19.77V11.3216H19.5745C19.8369 11.3216 20.0994 11.1501 20.1869 10.9357C20.2744 10.6784 20.2307 10.4211 20.0557 10.2066L11.4812 1.92982C11.35 1.80117 11.2187 1.75828 11.0437 1.75828Z" fill="#214762"/>
</svg>
