<svg width="21" height="22" viewBox="0 0 21 22" fill="none" xmlns="http://www.w3.org/2000/svg">
<path d="M17.6948 22H3.30518C1.49136 22 0 20.4194 0 18.4971V9.05631C0 7.13398 1.49136 5.5534 3.30518 5.5534H17.6948C19.5086 5.5534 21 7.13398 21 9.05631V18.4971C21 20.4194 19.5086 22 17.6948 22ZM3.30518 7.26214C2.37812 7.26214 1.61228 8.07379 1.61228 9.05631V18.4971C1.61228 19.4796 2.37812 20.2913 3.30518 20.2913H17.6948C18.6219 20.2913 19.3877 19.4796 19.3877 18.4971V9.05631C19.3877 8.07379 18.6219 7.26214 17.6948 7.26214H3.30518Z" fill="#214762"/>
<path d="M5.80422 7.13398V2.60583C5.80422 1.1534 6.89252 0 8.26296 0H12.737C14.1075 0 15.1958 1.1534 15.1958 2.60583V7.13398H5.80422ZM13.5432 5.42524V2.60583C13.5432 2.13592 13.1804 1.70874 12.6967 1.70874H8.22265C7.77927 1.70874 7.3762 2.0932 7.3762 2.60583V5.42524H13.5432Z" fill="#214762"/>
<path d="M8.86756 14.6524H0.846446C0.403067 14.6524 0.0403034 14.268 0.0403034 13.7981C0.0403034 13.3282 0.403067 12.9437 0.846446 12.9437H8.86756C9.31094 12.9437 9.67371 13.3282 9.67371 13.7981C9.67371 14.268 9.31094 14.6524 8.86756 14.6524Z" fill="#214762"/>
<path d="M20.1939 14.6524H12.2534C11.81 14.6524 11.4472 14.268 11.4472 13.7981C11.4472 13.3282 11.81 12.9437 12.2534 12.9437H20.1939C20.6372 12.9437 21 13.3282 21 13.7981C21 14.268 20.6372 14.6524 20.1939 14.6524Z" fill="#214762"/>
<path d="M11.6891 16.4893H9.31094C8.26295 16.4893 7.3762 15.5922 7.3762 14.4388V13.1146C7.3762 12.0039 8.22265 11.0641 9.31094 11.0641H11.6891C12.737 11.0641 13.6238 11.9612 13.6238 13.1146V14.4388C13.5835 15.5495 12.737 16.4893 11.6891 16.4893ZM9.31094 12.8155C9.14971 12.8155 8.98849 12.9437 8.98849 13.1573V14.4388C8.98849 14.6097 9.1094 14.7806 9.31094 14.7806H11.6891C11.8503 14.7806 12.0115 14.6524 12.0115 14.4388V13.1146C12.0115 12.9437 11.8906 12.7728 11.6891 12.7728H9.31094V12.8155Z" fill="#214762"/>
</svg>
