<svg width="50" height="101" viewBox="0 0 50 101" fill="none" xmlns="http://www.w3.org/2000/svg">
<path d="M26.8911 24.6093C27.5371 24.6093 28.3607 25.1812 28.5858 25.7858L48.6336 79.6027C48.8458 80.1722 48.5849 81.0522 48.096 81.4137L26.1642 97.6566L22.3591 25.4003C22.348 25.1859 22.4195 24.9861 22.559 24.839C22.6991 24.6914 22.8949 24.6099 23.1095 24.6099L26.8911 24.6093ZM26.8911 23.3174H23.1101C21.9253 23.3174 21.0068 24.2848 21.0695 25.4671L24.8874 97.9754C24.9291 98.7587 25.3066 99.1946 25.8342 99.1946C26.1027 99.1946 26.4098 99.0816 26.7311 98.8431L48.8657 82.4501C49.8177 81.7447 50.258 80.2606 49.8447 79.1509L29.7964 25.3335C29.3831 24.2256 28.0758 23.3174 26.8911 23.3174Z" fill="#214762"/>
<path d="M26.8911 24.6093C27.1057 24.6093 27.3014 24.6908 27.441 24.8384C27.5811 24.9861 27.652 25.1853 27.6409 25.3997L23.8358 97.6561L1.90398 81.4131C1.41567 81.0516 1.15481 80.1716 1.36643 79.6021L21.4153 25.7852C21.6404 25.1806 22.4641 24.6088 23.1101 24.6088L26.8911 24.6093ZM26.8911 23.3174H23.1101C21.9253 23.3174 20.6175 24.225 20.2036 25.3347L0.155322 79.1521C-0.257955 80.2618 0.182296 81.7459 1.1343 82.4513L23.2689 98.8443C23.5907 99.0821 23.8979 99.1958 24.1664 99.1958C24.694 99.1958 25.0721 98.7599 25.1137 97.9765L28.9323 25.4683C28.9944 24.2848 28.0758 23.3174 26.8911 23.3174Z" fill="#214762"/>
<path d="M26.8917 23.3174C28.0764 23.3174 29.2406 24.2666 29.4792 25.4261L40.7444 80.2079C40.983 81.3674 40.5603 83.063 39.8041 83.9753L26.3735 100.19C25.6179 101.102 24.3815 101.102 23.6259 100.19L10.1953 83.9753C9.4397 83.063 9.01704 81.368 9.25504 80.2079L20.5214 25.4261C20.76 24.2666 21.9242 23.3174 23.1089 23.3174H26.8917Z" fill="#214762"/>
<path d="M31.3844 14.6068C31.3844 13.4895 30.4693 12.5749 29.3514 12.5749H20.7599C19.642 12.5749 18.727 13.4895 18.727 14.6068V18.5617C18.727 19.679 19.642 20.5936 20.7599 20.5936H29.3514C30.4693 20.5936 31.3844 19.679 31.3844 18.5617V14.6068Z" fill="#214762"/>
<path d="M20.4522 11.0539C20.444 11.0539 20.4369 11.0539 20.4287 11.0539C20.0518 11.041 19.757 10.7258 19.7687 10.3503C19.7769 10.0807 19.8754 3.73894 12.6246 2.87181C12.25 2.82728 11.9827 2.48745 12.0272 2.11306C12.0729 1.73926 12.4182 1.47326 12.7869 1.51662C19.5993 2.3316 21.226 7.6803 21.1334 10.3942C21.1222 10.7633 20.8186 11.0539 20.4522 11.0539Z" fill="#214762"/>
<path d="M29.4171 11.4254C29.369 11.4254 29.3215 11.4207 29.2729 11.4102C28.9047 11.3311 28.6697 10.969 28.7482 10.6004C28.7681 10.5096 30.7741 1.55001 38.5672 0.876811C38.9447 0.844586 39.2742 1.1223 39.3064 1.49845C39.3386 1.87402 39.0608 2.20505 38.6844 2.23727C31.9055 2.82318 30.1012 10.8061 30.0836 10.8869C30.015 11.2063 29.7319 11.4254 29.4171 11.4254Z" fill="#214762"/>
</svg>
