<svg width="12" height="13" viewBox="0 0 12 13" fill="none" xmlns="http://www.w3.org/2000/svg">
<path d="M1.65771 0.942978C0.806053 0.942978 0.238281 1.52696 0.238281 2.25694C0.238281 2.98691 0.770567 3.57089 1.62222 3.57089C2.47388 3.57089 3.04165 2.98691 3.04165 2.25694C3.00617 1.52696 2.47388 0.942978 1.65771 0.942978ZM0.41571 4.62936V12.4766H2.97068V4.62936H0.41571ZM8.96777 4.44686C7.6548 4.44686 7.08703 5.17684 6.76766 5.72432V4.62936H4.14171V12.4766H6.73217V8.02375C6.73217 7.80476 6.73217 7.54926 6.80314 7.40327C6.98057 6.92878 7.33543 6.4543 8.04514 6.4543C8.93229 6.4543 9.21617 7.14778 9.21617 8.20624V12.4766H11.7711V7.91425C11.8066 5.54183 10.6001 4.44686 8.96777 4.44686Z" fill="white"/>
</svg>
