<svg width="209" height="211" viewBox="0 0 209 211" fill="none" xmlns="http://www.w3.org/2000/svg">
<path d="M79.187 2C91.3615 2 101.817 14.6306 101.817 30.2084V45.1897" stroke="black" stroke-width="3" stroke-miterlimit="10" stroke-linecap="round"/>
<path d="M129.113 2C116.938 2 106.483 14.6306 106.483 30.2084V45.1897" stroke="black" stroke-width="3" stroke-miterlimit="10" stroke-linecap="round"/>
<path d="M65.5391 8.06971C69.2932 4.28053 74.0296 2 79.1871 2C91.3617 2 101.817 14.6306 101.817 30.2084V45.1897" stroke="black" stroke-width="3" stroke-miterlimit="10" stroke-linecap="round"/>
<path d="M142.761 8.06971C139.007 4.28053 134.27 2 129.113 2C116.938 2 106.483 14.6306 106.483 30.2084V45.1897" stroke="black" stroke-width="3" stroke-miterlimit="10" stroke-linecap="round"/>
<path d="M189.004 166.549V179.811" stroke="#E2DCA6" stroke-width="2" stroke-miterlimit="10" stroke-linecap="round"/>
<path d="M189.004 125.885V156.76" stroke="#E2DCA6" stroke-width="2" stroke-miterlimit="10" stroke-linecap="round"/>
<path d="M172.935 197.634V209.668" stroke="#E2DCA6" stroke-width="2" stroke-miterlimit="10" stroke-linecap="round"/>
<path d="M172.935 135.814V188.898" stroke="#E2DCA6" stroke-width="2" stroke-miterlimit="10" stroke-linecap="round"/>
<path d="M154.796 156.76V179.811" stroke="#E2DCA6" stroke-width="2" stroke-miterlimit="10" stroke-linecap="round"/>
<path d="M154.796 137.569V147.322" stroke="#E2DCA6" stroke-width="2" stroke-miterlimit="10" stroke-linecap="round"/>
<path d="M19.2969 166.549V179.811" stroke="#E2DCA6" stroke-width="2" stroke-miterlimit="10" stroke-linecap="round"/>
<path d="M19.2974 125.885V156.76" stroke="#E2DCA6" stroke-width="2" stroke-miterlimit="10" stroke-linecap="round"/>
<path d="M35.3311 197.634V209.668" stroke="#E2DCA6" stroke-width="2" stroke-miterlimit="10" stroke-linecap="round"/>
<path d="M35.3311 135.814V188.898" stroke="#E2DCA6" stroke-width="2" stroke-miterlimit="10" stroke-linecap="round"/>
<path d="M53.5049 156.76V179.811" stroke="#E2DCA6" stroke-width="2" stroke-miterlimit="10" stroke-linecap="round"/>
<path d="M53.5049 137.569V147.322" stroke="#E2DCA6" stroke-width="2" stroke-miterlimit="10" stroke-linecap="round"/>
<path d="M41.5054 126.236C34.734 126.236 28.1029 124.342 22.349 120.763L3.01709 108.764L97.9222 68.1353L104.273 72.4156L69.1875 113.5C62.2407 121.57 52.1713 126.236 41.5054 126.236Z" fill="#FDF7CA"/>
<path d="M97.8171 69.7141L102.238 72.6963L68.1352 112.588C61.2936 120.587 51.4698 124.833 41.5407 124.833C35.2254 124.833 28.8399 123.114 23.1211 119.57L6.06972 109.009L97.8171 69.7141ZM98.0978 66.5564L96.6944 67.1528L4.94699 106.413L0 108.518L4.59614 111.36L21.6124 121.921C27.6119 125.64 34.4886 127.604 41.5056 127.604C52.5574 127.604 63.0478 122.798 70.2403 114.377L104.343 74.4856L106.378 72.0998L103.782 70.3456L99.3609 67.3634L98.0978 66.5564Z" fill="black"/>
<path d="M102.203 72.6962L68.0648 112.623C56.8727 125.745 37.7864 128.692 23.1209 119.64L6.1748 109.185C6.1748 109.185 53.8203 113.29 100.378 71.4683L102.203 72.6962Z" fill="#E2DCA6"/>
<path d="M166.794 126.236C156.129 126.236 146.059 121.605 139.147 113.5L103.992 72.4156L110.343 68.1353L205.248 108.764L185.916 120.763C180.162 124.342 173.531 126.236 166.794 126.236Z" fill="#FDF7CA"/>
<path d="M110.483 69.7141L202.23 109.009L185.214 119.57C179.495 123.114 173.109 124.833 166.794 124.833C156.865 124.833 147.041 120.622 140.2 112.588L106.097 72.6963L110.483 69.7141ZM110.202 66.5564L108.939 67.3984L104.518 70.3807L101.922 72.1349L103.957 74.5207L138.059 114.412C145.252 122.833 155.707 127.639 166.794 127.639C173.811 127.639 180.688 125.675 186.687 121.956L203.704 111.395L208.3 108.553L203.353 106.448L111.605 67.1528L110.202 66.5564Z" fill="black"/>
<path d="M106.062 72.6962L140.2 112.623C151.392 125.745 170.478 128.692 185.144 119.64L202.09 109.185C202.09 109.185 154.444 113.29 107.886 71.4683L106.062 72.6962Z" fill="#E2DCA6"/>
<path d="M80.3794 169.32C71.1871 159.672 68.4505 147.673 72.8712 136.341L98.6938 70.3806H109.605L135.428 136.341C139.849 147.638 137.112 159.637 127.92 169.32L104.132 194.266L80.3794 169.32Z" fill="#6DB444"/>
<path d="M108.623 71.7841L134.095 136.867C138.305 147.603 135.674 159.146 126.868 168.338L104.097 192.231L81.3974 168.338C72.6261 159.111 69.9596 147.603 74.1698 136.867L99.6416 71.7841H108.623ZM110.553 68.9773H108.623H99.6416H97.7119L97.0102 70.7666L71.5735 135.814C69.293 141.603 68.8369 147.813 70.2052 153.778C71.5385 159.672 74.7312 165.356 79.3975 170.268L102.168 194.161L104.203 196.301L106.238 194.161L129.008 170.268C133.674 165.391 136.832 159.672 138.2 153.778C139.568 147.813 139.077 141.603 136.832 135.814L111.255 70.7666L110.553 68.9773Z" fill="black"/>
<path d="M130.586 127.92L125.569 115.114C118.903 115.43 111.676 115.605 104.132 115.605C96.5891 115.605 89.3265 115.43 82.6954 115.114L77.6782 127.92C85.6425 128.482 94.6243 128.833 104.132 128.833C113.64 128.797 122.622 128.482 130.586 127.92Z" fill="#FDF7CA"/>
<path d="M104.133 88.9057C100.308 88.9057 96.5893 88.8706 92.9755 88.7654L87.8882 101.782C93.0457 101.992 98.4839 102.098 104.133 102.098C109.781 102.098 115.219 101.992 120.377 101.782L115.29 88.7654C111.676 88.8356 107.957 88.9057 104.133 88.9057Z" fill="#FDF7CA"/>
<path d="M135.604 152.024C136.411 147.743 136.165 143.358 134.867 139.077C125.885 139.744 115.36 140.095 104.133 140.095C92.9053 140.095 82.3798 139.709 73.398 139.077C72.0999 143.358 71.8543 147.743 72.6613 152.024C81.7834 152.866 92.5896 153.322 104.133 153.322C115.676 153.322 126.482 152.866 135.604 152.024Z" fill="#FDF7CA"/>
<path opacity="0.18" d="M126.903 168.338L104.133 192.231L81.3974 168.338C78.1345 164.9 75.7137 161.146 74.1699 157.216C95.7121 147.813 110.939 125.043 110.939 98.4488C110.939 88.9057 108.974 79.8888 105.501 71.7842H108.659L134.13 136.867C138.305 147.603 135.674 159.111 126.903 168.338Z" fill="#231F20"/>
<path d="M104.132 68.2405V158.69" stroke="black" stroke-width="3" stroke-miterlimit="10" stroke-linecap="round"/>
<path d="M97.7472 71.4332C92.8704 71.4332 88.9058 67.4686 88.9058 62.5918V43.0845H119.36V62.5918C119.36 67.4686 115.395 71.4332 110.518 71.4332H97.7472Z" fill="#6DB444"/>
<path d="M117.956 44.488V62.5918C117.956 66.6968 114.623 70.0299 110.518 70.0299H97.7473C93.6423 70.0299 90.3092 66.6968 90.3092 62.5918V44.488H117.956ZM120.763 41.6812H117.956H90.3092H87.5024V44.488V62.5918C87.5024 68.2405 92.0986 72.8367 97.7473 72.8367H110.518C116.167 72.8367 120.763 68.2405 120.763 62.5918V44.488V41.6812Z" fill="black"/>
<path d="M117.957 44.488V62.5919C117.957 66.6969 114.624 70.03 110.519 70.03H97.7477C95.2917 70.03 93.1515 68.8371 91.7832 67.0477C102.554 62.5919 110.905 55.6802 114.483 44.5231H117.957V44.488Z" fill="#609741"/>
<path d="M113.711 61.2585C111.466 64.0303 107.992 65.7845 104.133 65.7845C100.274 65.7845 96.8352 64.0303 94.5547 61.2585" stroke="black" stroke-width="2" stroke-miterlimit="10" stroke-linecap="round"/>
<path d="M129.008 62.6621C118.553 62.6621 110.027 51.926 110.027 38.7691C110.027 25.6123 118.517 14.8762 129.008 14.8762C139.498 14.8762 147.989 25.5772 147.989 38.7691C147.989 51.9611 139.463 62.6621 129.008 62.6621Z" fill="white"/>
<path d="M129.007 16.2797C138.691 16.2797 146.585 26.3491 146.585 38.7692C146.585 51.1893 138.726 61.2587 129.007 61.2587C119.289 61.2587 111.43 51.1893 111.43 38.7692C111.465 26.3491 119.324 16.2797 129.007 16.2797ZM129.007 13.4729C123.429 13.4729 118.236 16.2095 114.377 21.1565C110.693 25.893 108.623 32.1732 108.623 38.8043C108.623 45.4354 110.658 51.6805 114.377 56.4521C118.236 61.3991 123.429 64.1357 129.007 64.1357C134.586 64.1357 139.779 61.3991 143.638 56.4521C147.322 51.7156 149.392 45.4354 149.392 38.8043C149.392 32.1732 147.357 25.9281 143.638 21.1565C139.779 16.2095 134.586 13.4729 129.007 13.4729Z" fill="black"/>
<path d="M129.007 61.2408C121.745 61.2408 115.815 53.1011 115.815 43.1019C115.815 33.1026 121.745 24.9629 129.007 24.9629C136.27 24.9629 142.199 33.1026 142.199 43.1019C142.199 53.1362 136.305 61.2408 129.007 61.2408Z" fill="#6DB444"/>
<path d="M129.008 58.2588C123.464 58.2588 118.798 51.312 118.798 43.1021C118.798 34.8922 123.464 27.9453 129.008 27.9453C134.551 27.9453 139.217 34.8922 139.217 43.1021C139.217 51.312 134.551 58.2588 129.008 58.2588Z" fill="black"/>
<path d="M133.533 44.6106C136.42 44.6106 138.761 42.2701 138.761 39.3829C138.761 36.4958 136.42 34.1553 133.533 34.1553C130.646 34.1553 128.306 36.4958 128.306 39.3829C128.306 42.2701 130.646 44.6106 133.533 44.6106Z" fill="white"/>
<path d="M79.2916 62.6621C68.8362 62.6621 60.3105 51.926 60.3105 38.7691C60.3105 25.6123 68.8011 14.8762 79.2916 14.8762C89.782 14.8762 98.2375 25.6123 98.2375 38.7691C98.2375 51.926 89.7469 62.6621 79.2916 62.6621Z" fill="white"/>
<path d="M79.2921 16.2797C88.9756 16.2797 96.8698 26.3491 96.8698 38.7692C96.8698 51.1893 89.0107 61.2587 79.2921 61.2587C69.5736 61.2587 61.7145 51.1893 61.7145 38.7692C61.7145 26.3491 69.5736 16.2797 79.2921 16.2797ZM79.2921 13.4729C73.7136 13.4729 68.521 16.2095 64.6617 21.1565C60.9777 25.893 58.9077 32.1732 58.9077 38.8043C58.9077 45.4354 60.9427 51.6805 64.6617 56.4521C68.521 61.3991 73.7136 64.1357 79.2921 64.1357C84.8707 64.1357 90.0633 61.3991 93.9226 56.4521C97.6065 51.7156 99.6766 45.4354 99.6766 38.8043C99.6766 32.1732 97.6416 25.9281 93.9226 21.1565C90.0282 16.2095 84.8356 13.4729 79.2921 13.4729Z" fill="black"/>
<path d="M79.2921 61.2408C72.0295 61.2408 66.1001 53.1011 66.1001 43.1019C66.1001 33.1026 72.0295 24.9629 79.2921 24.9629C86.5547 24.9629 92.4841 33.1026 92.4841 43.1019C92.4841 53.1362 86.5547 61.2408 79.2921 61.2408Z" fill="#6DB444"/>
<path d="M79.2913 58.2588C73.7479 58.2588 69.0815 51.312 69.0815 43.1021C69.0815 34.8922 73.7479 27.9453 79.2913 27.9453C84.8347 27.9453 89.5011 34.8922 89.5011 43.1021C89.5011 51.312 84.7997 58.2588 79.2913 58.2588Z" fill="black"/>
<path d="M83.818 44.6106C86.7052 44.6106 89.0457 42.2701 89.0457 39.3829C89.0457 36.4958 86.7052 34.1553 83.818 34.1553C80.9308 34.1553 78.5903 36.4958 78.5903 39.3829C78.5903 42.2701 80.9308 44.6106 83.818 44.6106Z" fill="white"/>
</svg>
