<svg width="132" height="59" viewBox="0 0 132 59" fill="none" xmlns="http://www.w3.org/2000/svg">
<path d="M0.302278 0.815215H5.18868C6.38384 0.815215 7.31458 1.11665 7.98091 1.71952C8.64724 2.31181 8.9804 3.14736 8.9804 4.22618C8.9804 5.30499 8.64724 6.14584 7.98091 6.7487C7.31458 7.35157 6.38384 7.65301 5.18868 7.65301H2.34886V12H0.302278V0.815215ZM4.93484 6.08238C6.34153 6.08238 7.04488 5.46893 7.04488 4.24204C7.04488 3.61802 6.87036 3.15794 6.52134 2.86179C6.17231 2.55507 5.64348 2.40171 4.93484 2.40171H2.34886V6.08238H4.93484ZM15.5547 5.70162L14.3965 5.81267C13.085 5.95017 12.4293 6.6165 12.4293 7.81166V12H10.4462V4.24204H12.3341V5.60643C12.736 4.67568 13.5663 4.16801 14.8249 4.08339L15.4278 4.0358L15.5547 5.70162ZM23.1706 8.47798H17.8876C17.951 9.19719 18.1679 9.73131 18.538 10.0803C18.9082 10.4294 19.4371 10.6039 20.1245 10.6039C20.9812 10.6039 21.7639 10.3289 22.4725 9.77891L23.0437 11.1433C22.6841 11.4394 22.2293 11.6774 21.6793 11.8572C21.1399 12.037 20.5952 12.1269 20.0452 12.1269C18.776 12.1269 17.7712 11.7673 17.0309 11.0481C16.3011 10.3289 15.9362 9.34527 15.9362 8.09722C15.9362 7.30398 16.0948 6.60063 16.4121 5.98719C16.7294 5.37374 17.1737 4.89779 17.7448 4.55934C18.3265 4.22089 18.9823 4.05166 19.712 4.05166C20.7803 4.05166 21.6211 4.3954 22.2346 5.08288C22.8586 5.77037 23.1706 6.71697 23.1706 7.92271V8.47798ZM19.7596 5.44778C19.2308 5.44778 18.8025 5.617 18.4746 5.95546C18.1573 6.29391 17.9616 6.78043 17.8876 7.41503H21.4731C21.4519 6.76986 21.2933 6.28333 20.9971 5.95546C20.701 5.617 20.2885 5.44778 19.7596 5.44778ZM34.0103 4.05166C34.8882 4.05166 35.5439 4.31608 35.9776 4.84491C36.4112 5.36317 36.628 6.1617 36.628 7.24052V12H34.6449V7.31984C34.6449 6.72755 34.5444 6.2992 34.3435 6.03478C34.1425 5.75979 33.8199 5.62229 33.3757 5.62229C32.8469 5.62229 32.4344 5.8021 32.1383 6.1617C31.8421 6.52131 31.694 7.0237 31.694 7.66887V12H29.7109V7.31984C29.7109 6.72755 29.6104 6.2992 29.4095 6.03478C29.2191 5.75979 28.8965 5.62229 28.4417 5.62229C27.9235 5.62229 27.5163 5.8021 27.2201 6.1617C26.924 6.52131 26.7759 7.0237 26.7759 7.66887V12H24.7928V4.24204H26.7283V5.33672C26.961 4.91366 27.2836 4.59636 27.6961 4.38483C28.1086 4.16272 28.5792 4.05166 29.1081 4.05166C30.2821 4.05166 31.0594 4.53819 31.4402 5.51124C31.6835 5.05644 32.0325 4.70213 32.4873 4.44829C32.9421 4.18387 33.4498 4.05166 34.0103 4.05166ZM38.6436 4.24204H40.6267V12H38.6436V4.24204ZM40.7219 0.640701V2.59209H38.5326V0.640701H40.7219ZM49.7952 4.24204V12H47.8597V10.8101C47.6164 11.2332 47.2885 11.5611 46.876 11.7938C46.4636 12.0159 45.9982 12.1269 45.4799 12.1269C43.5761 12.1269 42.6242 11.0587 42.6242 8.9222V4.24204H44.6074V8.93807C44.6074 9.48805 44.7184 9.89525 44.9405 10.1597C45.1626 10.4241 45.5117 10.5563 45.9876 10.5563C46.5376 10.5563 46.9765 10.3765 47.3044 10.0169C47.6429 9.6467 47.8121 9.16018 47.8121 8.55731V4.24204H49.7952ZM61.0768 4.05166C61.9546 4.05166 62.6104 4.31608 63.044 4.84491C63.4777 5.36317 63.6945 6.1617 63.6945 7.24052V12H61.7114V7.31984C61.7114 6.72755 61.6109 6.2992 61.4099 6.03478C61.209 5.75979 60.8864 5.62229 60.4422 5.62229C59.9134 5.62229 59.5009 5.8021 59.2047 6.1617C58.9086 6.52131 58.7605 7.0237 58.7605 7.66887V12H56.7774V7.31984C56.7774 6.72755 56.6769 6.2992 56.4759 6.03478C56.2856 5.75979 55.963 5.62229 55.5082 5.62229C54.9899 5.62229 54.5827 5.8021 54.2866 6.1617C53.9904 6.52131 53.8424 7.0237 53.8424 7.66887V12H51.8593V4.24204H53.7948V5.33672C54.0275 4.91366 54.35 4.59636 54.7625 4.38483C55.175 4.16272 55.6457 4.05166 56.1745 4.05166C57.3485 4.05166 58.1259 4.53819 58.5067 5.51124C58.7499 5.05644 59.099 4.70213 59.5537 4.44829C60.0085 4.18387 60.5162 4.05166 61.0768 4.05166ZM70.1917 0.815215H77.5213V2.4493H72.2065V5.49537H77.204V7.12946H72.2065V12H70.1917V0.815215ZM85.6543 8.47798H80.3713C80.4347 9.19719 80.6516 9.73131 81.0217 10.0803C81.3919 10.4294 81.9208 10.6039 82.6082 10.6039C83.4649 10.6039 84.2476 10.3289 84.9562 9.77891L85.5274 11.1433C85.1678 11.4394 84.713 11.6774 84.163 11.8572C83.6236 12.037 83.0789 12.1269 82.5289 12.1269C81.2597 12.1269 80.2549 11.7673 79.5146 11.0481C78.7848 10.3289 78.4199 9.34527 78.4199 8.09722C78.4199 7.30398 78.5785 6.60063 78.8958 5.98719C79.2131 5.37374 79.6574 4.89779 80.2285 4.55934C80.8102 4.22089 81.466 4.05166 82.1957 4.05166C83.264 4.05166 84.1048 4.3954 84.7183 5.08288C85.3423 5.77037 85.6543 6.71697 85.6543 7.92271V8.47798ZM82.2433 5.44778C81.7145 5.44778 81.2862 5.617 80.9583 5.95546C80.641 6.29391 80.4453 6.78043 80.3713 7.41503H83.9568C83.9356 6.76986 83.777 6.28333 83.4808 5.95546C83.1847 5.617 82.7722 5.44778 82.2433 5.44778ZM90.6081 4.05166C91.6975 4.05166 92.5066 4.31608 93.0355 4.84491C93.5643 5.37374 93.8287 6.18814 93.8287 7.28811V12H91.9408V10.8101C91.761 11.2226 91.4754 11.5452 91.0841 11.7779C90.7033 12.0106 90.2591 12.1269 89.7514 12.1269C89.2332 12.1269 88.7625 12.0212 88.3394 11.8096C87.9164 11.5981 87.5832 11.3072 87.34 10.937C87.0967 10.5669 86.9751 10.1544 86.9751 9.69958C86.9751 9.12845 87.1178 8.67894 87.4034 8.35106C87.6996 8.02319 88.1755 7.78521 88.8313 7.63714C89.487 7.48907 90.3913 7.41503 91.5442 7.41503H91.9408V7.05014C91.9408 6.52131 91.8244 6.14055 91.5918 5.90786C91.3697 5.67518 90.9942 5.55883 90.4654 5.55883C90.0529 5.55883 89.6192 5.63287 89.1644 5.78094C88.7202 5.91844 88.2813 6.11411 87.8476 6.36795L87.2924 5.00356C87.726 4.72857 88.2495 4.50117 88.863 4.32137C89.4764 4.14156 90.0582 4.05166 90.6081 4.05166ZM90.1481 10.6991C90.6769 10.6991 91.1052 10.5246 91.4331 10.1755C91.7716 9.81593 91.9408 9.35584 91.9408 8.79528V8.46212H91.6552C90.9466 8.46212 90.3966 8.49385 90.0053 8.55731C89.6139 8.62077 89.3337 8.73182 89.1644 8.89047C88.9952 9.04912 88.9106 9.26594 88.9106 9.54093C88.9106 9.87939 89.0269 10.1597 89.2596 10.3818C89.4923 10.5933 89.7884 10.6991 90.1481 10.6991ZM99.8104 10.6356C100.043 10.6356 100.286 10.6197 100.54 10.588L100.445 12.0635C100.128 12.0952 99.8369 12.1111 99.5724 12.1111C98.4831 12.1111 97.6792 11.8625 97.161 11.3654C96.6427 10.8577 96.3836 10.1068 96.3836 9.11258V5.73335H94.8923V4.24204H96.3836V1.92576H98.3667V4.24204H100.413V5.73335H98.3667V9.08085C98.3667 10.1174 98.8479 10.6356 99.8104 10.6356ZM108.824 4.24204V12H106.888V10.8101C106.645 11.2332 106.317 11.5611 105.905 11.7938C105.492 12.0159 105.027 12.1269 104.509 12.1269C102.605 12.1269 101.653 11.0587 101.653 8.9222V4.24204H103.636V8.93807C103.636 9.48805 103.747 9.89525 103.969 10.1597C104.191 10.4241 104.54 10.5563 105.016 10.5563C105.566 10.5563 106.005 10.3765 106.333 10.0169C106.672 9.6467 106.841 9.16018 106.841 8.55731V4.24204H108.824ZM115.997 5.70162L114.838 5.81267C113.527 5.95017 112.871 6.6165 112.871 7.81166V12H110.888V4.24204H112.776V5.60643C113.178 4.67568 114.008 4.16801 115.267 4.08339L115.87 4.0358L115.997 5.70162ZM123.612 8.47798H118.329C118.393 9.19719 118.61 9.73131 118.98 10.0803C119.35 10.4294 119.879 10.6039 120.566 10.6039C121.423 10.6039 122.206 10.3289 122.914 9.77891L123.486 11.1433C123.126 11.4394 122.671 11.6774 122.121 11.8572C121.582 12.037 121.037 12.1269 120.487 12.1269C119.218 12.1269 118.213 11.7673 117.473 11.0481C116.743 10.3289 116.378 9.34527 116.378 8.09722C116.378 7.30398 116.537 6.60063 116.854 5.98719C117.171 5.37374 117.615 4.89779 118.187 4.55934C118.768 4.22089 119.424 4.05166 120.154 4.05166C121.222 4.05166 122.063 4.3954 122.676 5.08288C123.3 5.77037 123.612 6.71697 123.612 7.92271V8.47798ZM120.201 5.44778C119.673 5.44778 119.244 5.617 118.916 5.95546C118.599 6.29391 118.403 6.78043 118.329 7.41503H121.915C121.894 6.76986 121.735 6.28333 121.439 5.95546C121.143 5.617 120.73 5.44778 120.201 5.44778ZM128.09 12.1269C127.403 12.1269 126.768 12.0423 126.187 11.8731C125.615 11.7039 125.129 11.4606 124.727 11.1433L125.282 9.76304C126.107 10.3659 127.054 10.6673 128.122 10.6673C128.577 10.6673 128.921 10.5933 129.153 10.4452C129.397 10.2972 129.518 10.0856 129.518 9.81064C129.518 9.57795 129.434 9.39815 129.264 9.27123C129.106 9.14431 128.815 9.02797 128.392 8.9222L127.123 8.63663C126.403 8.47798 125.869 8.21886 125.52 7.85925C125.171 7.49964 124.997 7.03427 124.997 6.46313C124.997 5.98719 125.129 5.56941 125.393 5.2098C125.668 4.83962 126.044 4.55405 126.52 4.3531C127.006 4.15214 127.567 4.05166 128.201 4.05166C128.751 4.05166 129.28 4.13628 129.788 4.3055C130.306 4.47473 130.761 4.7127 131.152 5.01942L130.597 6.36795C129.793 5.78623 128.989 5.49537 128.185 5.49537C127.752 5.49537 127.413 5.5747 127.17 5.73335C126.927 5.892 126.805 6.11411 126.805 6.39968C126.805 6.61121 126.879 6.78572 127.027 6.92322C127.186 7.06071 127.435 7.16648 127.773 7.24052L129.09 7.54195C129.862 7.71118 130.428 7.98088 130.787 8.35106C131.147 8.71067 131.327 9.18662 131.327 9.77891C131.327 10.4981 131.036 11.0693 130.454 11.4923C129.872 11.9154 129.085 12.1269 128.09 12.1269ZM19.2076 44.8152L15.2572 56H13.5914L10.7833 47.9565L7.95934 56H6.29352L2.35901 44.8152H4.42146L7.19782 53.1443L10.117 44.8152H11.5607L14.4005 53.1919L17.2562 44.8152H19.2076ZM23.2489 56.1269C22.4557 56.1269 21.7576 55.963 21.1548 55.6351C20.5625 55.3072 20.1024 54.8366 19.7745 54.2231C19.4466 53.6097 19.2827 52.8958 19.2827 52.0814C19.2827 51.267 19.4466 50.5583 19.7745 49.9555C20.1024 49.342 20.5625 48.8714 21.1548 48.5435C21.7576 48.2156 22.4557 48.0517 23.2489 48.0517C24.0422 48.0517 24.7349 48.2156 25.3272 48.5435C25.9301 48.8714 26.3902 49.342 26.7075 49.9555C27.0354 50.5583 27.1993 51.267 27.1993 52.0814C27.1993 52.8958 27.0354 53.6097 26.7075 54.2231C26.3902 54.8366 25.9301 55.3072 25.3272 55.6351C24.7349 55.963 24.0422 56.1269 23.2489 56.1269ZM23.2331 54.588C23.8782 54.588 24.3701 54.3765 24.7085 53.9534C25.047 53.5304 25.2162 52.9063 25.2162 52.0814C25.2162 51.267 25.047 50.6482 24.7085 50.2252C24.3701 49.7915 23.8835 49.5747 23.2489 49.5747C22.6143 49.5747 22.1225 49.7915 21.7735 50.2252C21.435 50.6482 21.2658 51.267 21.2658 52.0814C21.2658 52.9063 21.435 53.5304 21.7735 53.9534C22.1119 54.3765 22.5985 54.588 23.2331 54.588ZM33.945 49.7016L32.7869 49.8127C31.4754 49.9502 30.8196 50.6165 30.8196 51.8117V56H28.8365V48.242H30.7244V49.6064C31.1263 48.6757 31.9566 48.168 33.2152 48.0834L33.8181 48.0358L33.945 49.7016ZM40.2245 56L36.8929 52.4621V56H34.9098V44.8152H36.8929V51.6371L40.0183 48.2579H42.4298L38.9395 51.9703L42.6836 56H40.2245ZM47.7226 48.242H49.7057V56H47.7226V48.242ZM49.8009 44.6407V46.5921H47.6115V44.6407H49.8009ZM56.2564 48.0517C57.1872 48.0517 57.88 48.3161 58.3347 48.8449C58.7895 49.3737 59.0169 50.1723 59.0169 51.2405V56H57.0338V51.3516C57.0338 50.7487 56.9175 50.3098 56.6848 50.0348C56.4627 49.7598 56.1084 49.6223 55.6218 49.6223C55.0507 49.6223 54.5906 49.8021 54.2416 50.1617C53.9031 50.5213 53.7339 51.0025 53.7339 51.6054V56H51.7508V48.242H53.6863V49.4002C53.9507 48.9665 54.3051 48.6334 54.7493 48.4007C55.1935 48.168 55.6959 48.0517 56.2564 48.0517ZM65.5128 44.8152H70.3992C71.5943 44.8152 72.5251 45.1166 73.1914 45.7195C73.8577 46.3118 74.1909 47.1474 74.1909 48.2262C74.1909 49.305 73.8577 50.1458 73.1914 50.7487C72.5251 51.3516 71.5943 51.653 70.3992 51.653H67.5593V56H65.5128V44.8152ZM70.1453 50.0824C71.552 50.0824 72.2554 49.4689 72.2554 48.242C72.2554 47.618 72.0809 47.1579 71.7318 46.8618C71.3828 46.5551 70.854 46.4017 70.1453 46.4017H67.5593V50.0824H70.1453ZM80.7652 49.7016L79.607 49.8127C78.2955 49.9502 77.6398 50.6165 77.6398 51.8117V56H75.6567V48.242H77.5446V49.6064C77.9465 48.6757 78.7768 48.168 80.0354 48.0834L80.6383 48.0358L80.7652 49.7016ZM85.1129 56.1269C84.3197 56.1269 83.6216 55.963 83.0187 55.6351C82.4264 55.3072 81.9664 54.8366 81.6385 54.2231C81.3106 53.6097 81.1467 52.8958 81.1467 52.0814C81.1467 51.267 81.3106 50.5583 81.6385 49.9555C81.9664 49.342 82.4264 48.8714 83.0187 48.5435C83.6216 48.2156 84.3197 48.0517 85.1129 48.0517C85.9062 48.0517 86.5989 48.2156 87.1912 48.5435C87.7941 48.8714 88.2542 49.342 88.5715 49.9555C88.8993 50.5583 89.0633 51.267 89.0633 52.0814C89.0633 52.8958 88.8993 53.6097 88.5715 54.2231C88.2542 54.8366 87.7941 55.3072 87.1912 55.6351C86.5989 55.963 85.9062 56.1269 85.1129 56.1269ZM85.097 54.588C85.7422 54.588 86.234 54.3765 86.5725 53.9534C86.9109 53.5304 87.0802 52.9063 87.0802 52.0814C87.0802 51.267 86.9109 50.6482 86.5725 50.2252C86.234 49.7915 85.7475 49.5747 85.1129 49.5747C84.4783 49.5747 83.9865 49.7915 83.6375 50.2252C83.299 50.6482 83.1298 51.267 83.1298 52.0814C83.1298 52.9063 83.299 53.5304 83.6375 53.9534C83.9759 54.3765 84.4624 54.588 85.097 54.588ZM98.2522 48.242V55.2861C98.2522 56.5024 97.9137 57.4226 97.2368 58.0466C96.5705 58.6706 95.5816 58.9826 94.2701 58.9826C93.5932 58.9826 92.9427 58.8927 92.3187 58.7129C91.6947 58.5437 91.15 58.3004 90.6846 57.9831L91.2399 56.587C92.2024 57.1687 93.1966 57.4596 94.2225 57.4596C95.5975 57.4596 96.2849 56.7827 96.2849 55.4289V54.4135C96.0522 54.8471 95.7138 55.1856 95.2696 55.4289C94.8254 55.6615 94.3177 55.7779 93.7465 55.7779C93.0696 55.7779 92.4668 55.6192 91.9379 55.3019C91.4197 54.9741 91.0125 54.5193 90.7163 53.9376C90.4202 53.3558 90.2721 52.6842 90.2721 51.9227C90.2721 51.1612 90.4149 50.4896 90.7005 49.9079C90.9966 49.3156 91.4091 48.8608 91.9379 48.5435C92.4668 48.2156 93.0696 48.0517 93.7465 48.0517C94.3177 48.0517 94.8254 48.1733 95.2696 48.4166C95.7138 48.6492 96.0522 48.9824 96.2849 49.416V48.242H98.2522ZM94.2701 54.239C94.9047 54.239 95.3965 54.0327 95.7455 53.6203C96.1051 53.2078 96.2849 52.6419 96.2849 51.9227C96.2849 51.1929 96.1051 50.6218 95.7455 50.2093C95.3965 49.7968 94.9047 49.5906 94.2701 49.5906C93.6461 49.5906 93.1542 49.7968 92.7946 50.2093C92.435 50.6218 92.2552 51.1929 92.2552 51.9227C92.2552 52.6313 92.435 53.1972 92.7946 53.6203C93.1542 54.0327 93.6461 54.239 94.2701 54.239ZM105.415 49.7016L104.257 49.8127C102.945 49.9502 102.289 50.6165 102.289 51.8117V56H100.306V48.242H102.194V49.6064C102.596 48.6757 103.426 48.168 104.685 48.0834L105.288 48.0358L105.415 49.7016ZM113.031 52.478H107.748C107.811 53.1972 108.028 53.7313 108.398 54.0803C108.768 54.4294 109.297 54.6039 109.985 54.6039C110.841 54.6039 111.624 54.3289 112.333 53.7789L112.904 55.1433C112.544 55.4394 112.089 55.6774 111.539 55.8572C111 56.037 110.455 56.1269 109.905 56.1269C108.636 56.1269 107.631 55.7673 106.891 55.0481C106.161 54.3289 105.796 53.3453 105.796 52.0972C105.796 51.304 105.955 50.6006 106.272 49.9872C106.589 49.3737 107.034 48.8978 107.605 48.5593C108.187 48.2209 108.842 48.0517 109.572 48.0517C110.64 48.0517 111.481 48.3954 112.095 49.0829C112.719 49.7704 113.031 50.717 113.031 51.9227V52.478ZM109.62 49.4478C109.091 49.4478 108.662 49.617 108.335 49.9555C108.017 50.2939 107.822 50.7804 107.748 51.415H111.333C111.312 50.7699 111.153 50.2833 110.857 49.9555C110.561 49.617 110.148 49.4478 109.62 49.4478ZM117.509 56.1269C116.821 56.1269 116.186 56.0423 115.605 55.8731C115.034 55.7039 114.547 55.4606 114.145 55.1433L114.7 53.763C115.525 54.3659 116.472 54.6673 117.54 54.6673C117.995 54.6673 118.339 54.5933 118.571 54.4452C118.815 54.2972 118.936 54.0856 118.936 53.8106C118.936 53.578 118.852 53.3981 118.683 53.2712C118.524 53.1443 118.233 53.028 117.81 52.9222L116.541 52.6366C115.822 52.478 115.287 52.2189 114.938 51.8592C114.589 51.4996 114.415 51.0343 114.415 50.4631C114.415 49.9872 114.547 49.5694 114.811 49.2098C115.086 48.8396 115.462 48.5541 115.938 48.3531C116.424 48.1521 116.985 48.0517 117.62 48.0517C118.17 48.0517 118.698 48.1363 119.206 48.3055C119.724 48.4747 120.179 48.7127 120.57 49.0194L120.015 50.3679C119.211 49.7862 118.408 49.4954 117.604 49.4954C117.17 49.4954 116.832 49.5747 116.588 49.7333C116.345 49.892 116.223 50.1141 116.223 50.3997C116.223 50.6112 116.297 50.7857 116.446 50.9232C116.604 51.0607 116.853 51.1665 117.191 51.2405L118.508 51.542C119.28 51.7112 119.846 51.9809 120.206 52.3511C120.565 52.7107 120.745 53.1866 120.745 53.7789C120.745 54.4981 120.454 55.0693 119.872 55.4923C119.291 55.9154 118.503 56.1269 117.509 56.1269ZM125.209 56.1269C124.521 56.1269 123.887 56.0423 123.305 55.8731C122.734 55.7039 122.247 55.4606 121.845 55.1433L122.4 53.763C123.225 54.3659 124.172 54.6673 125.24 54.6673C125.695 54.6673 126.039 54.5933 126.272 54.4452C126.515 54.2972 126.636 54.0856 126.636 53.8106C126.636 53.578 126.552 53.3981 126.383 53.2712C126.224 53.1443 125.933 53.028 125.51 52.9222L124.241 52.6366C123.522 52.478 122.987 52.2189 122.638 51.8592C122.289 51.4996 122.115 51.0343 122.115 50.4631C122.115 49.9872 122.247 49.5694 122.512 49.2098C122.787 48.8396 123.162 48.5541 123.638 48.3531C124.124 48.1521 124.685 48.0517 125.32 48.0517C125.87 48.0517 126.398 48.1363 126.906 48.3055C127.424 48.4747 127.879 48.7127 128.271 49.0194L127.715 50.3679C126.911 49.7862 126.108 49.4954 125.304 49.4954C124.87 49.4954 124.532 49.5747 124.288 49.7333C124.045 49.892 123.924 50.1141 123.924 50.3997C123.924 50.6112 123.998 50.7857 124.146 50.9232C124.304 51.0607 124.553 51.1665 124.891 51.2405L126.208 51.542C126.98 51.7112 127.546 51.9809 127.906 52.3511C128.265 52.7107 128.445 53.1866 128.445 53.7789C128.445 54.4981 128.154 55.0693 127.572 55.4923C126.991 55.9154 126.203 56.1269 125.209 56.1269Z" fill="#4D4D4D"/>
</svg>
